<svg width="40" height="53" viewBox="0 0 40 53" fill="none" xmlns="http://www.w3.org/2000/svg">
<path d="M38.125 0.6875H7.76562C7.51641 0.6875 7.3125 0.894922 7.3125 1.14844V4.375C7.3125 4.62852 7.51641 4.83594 7.76562 4.83594H35.8594V44.4766C35.8594 44.7301 36.0633 44.9375 36.3125 44.9375H39.4844C39.7336 44.9375 39.9375 44.7301 39.9375 44.4766V2.53125C39.9375 1.51143 39.1275 0.6875 38.125 0.6875ZM30.875 8.0625H1.875C0.872461 8.0625 0.0625 8.88643 0.0625 9.90625V40.4837C0.0625 40.9734 0.255078 41.4401 0.594922 41.7858L10.4107 51.7709C10.5354 51.8977 10.677 52.0014 10.8299 52.0878V52.1973H11.0678C11.266 52.2722 11.4756 52.3125 11.6908 52.3125H30.875C31.8775 52.3125 32.6875 51.4886 32.6875 50.4688V9.90625C32.6875 8.88643 31.8775 8.0625 30.875 8.0625ZM10.8242 46.3318L5.94746 41.3652H10.8242V46.3318ZM28.6094 48.1641H14.4492V39.9824C14.4492 38.7091 13.4354 37.6777 12.1836 37.6777H4.14062V12.2109H28.6094V48.1641Z" fill="white"/>
</svg>
